<svg xmlns="http://www.w3.org/2000/svg" xmlns:xlink="http://www.w3.org/1999/xlink" width="420" height="420" viewBox="0 0 420 420"><defs><filter id="a" x="-13" y="37" width="391" height="311" filterUnits="userSpaceOnUse"><feOffset dy="4" input="SourceAlpha"/><feGaussianBlur stdDeviation="10" result="b"/><feFlood flood-opacity="0.102"/><feComposite operator="in" in2="b"/><feComposite in="SourceGraphic"/></filter><clipPath id="c"><rect width="323" height="243" rx="16" fill="#fff"/></clipPath><filter id="d" x="254" y="96" width="180" height="292" filterUnits="userSpaceOnUse"><feOffset dy="4" input="SourceAlpha"/><feGaussianBlur stdDeviation="10" result="e"/><feFlood flood-opacity="0.102"/><feComposite operator="in" in2="e"/><feComposite in="SourceGraphic"/></filter><clipPath id="f"><rect width="112" height="224" rx="16" fill="#fff"/></clipPath><linearGradient id="g" x1="0.06" y1="1" x2="0.922" gradientUnits="objectBoundingBox"><stop offset="0" stop-color="#6a6dff"/><stop offset="1" stop-color="#d07afe"/></linearGradient><linearGradient id="h" x1="0" y1="0.816" x2="1" y2="0.289" xlink:href="#g"/><clipPath id="j"><rect width="420" height="420"/></clipPath></defs><g id="i" clip-path="url(#j)"><g transform="translate(-910 -1361)"><g transform="matrix(1, 0, 0, 1, 910, 1361)" filter="url(#a)"><g transform="translate(21 67)" fill="#fff" stroke="#88888e" stroke-width="4" opacity="0.8"><rect width="323" height="243" rx="16" stroke="none"/><rect x="-2" y="-2" width="327" height="247" rx="18" fill="none"/></g></g><g transform="translate(931 1428)" clip-path="url(#c)"><g transform="translate(-14.25 -1.123)"><rect width="342" height="249.254" fill="#fff"/><g transform="translate(-31.75 -45.877)"><text transform="translate(64 71)" fill="#212121" font-size="13" font-family="SFProDisplay-Black, SF Pro Display" font-weight="800" letter-spacing="0.35em"><tspan x="0" y="0">PF</tspan></text><line y2="15.869" transform="translate(74.502 59.233)" fill="none" stroke="#212121" stroke-width="1"/></g><g transform="translate(281.436 -54.877)"><rect width="12" height="1" transform="translate(27.814 69)" fill="#212121"/><rect width="12" height="1" transform="translate(27.814 72)" fill="#212121"/><rect width="12" height="1" transform="translate(27.814 75)" fill="#212121"/></g><g transform="translate(48.25 -102.265)"><text transform="translate(28 193.388)" fill="#202020" font-size="27" font-family="SFProDisplay-Regular, SF Pro Display"><tspan x="0" y="0">Pier</tspan><tspan x="0" y="33">Fabien</tspan></text><g transform="translate(28.29 246.039)"><g transform="translate(0 0.349)"><line x2="13.518" transform="translate(0 3.759)" fill="none" stroke="#e2e2e2" stroke-width="2"/><text transform="translate(18.71 6)" fill="#202020" font-size="6" font-family="SFProDisplay-Semibold, SF Pro Display" font-weight="600"><tspan x="0" y="0">My Works</tspan></text></g><g transform="translate(0 13.814)"><line x2="13.518" transform="translate(0 4.037)" fill="none" stroke="#e2e2e2" stroke-width="2"/><text transform="translate(18.71 5.536)" fill="#202020" font-size="6" font-family="SFProDisplay-Medium, SF Pro Display" font-weight="500"><tspan x="0" y="0">Expertises</tspan></text></g><g transform="translate(0 26.278)"><line x2="13.518" transform="translate(0 4.314)" fill="none" stroke="#e2e2e2" stroke-width="2"/><text transform="translate(18.71 6.071)" fill="#202020" font-size="6" font-family="SFProDisplay-Medium, SF Pro Display" font-weight="500"><tspan x="0" y="0">Contact</tspan></text></g></g><text transform="translate(143 252.388)" fill="#979797" font-size="6" font-family="SFProDisplay-Light, SF Pro Display" font-weight="300"><tspan x="0" y="0">Compsum helps you creating </tspan><tspan x="0" y="11">something cool and trendy out of </tspan><tspan x="0" y="22">existing thing, and transforming them for </tspan><tspan x="0" y="33">better usage.</tspan></text></g><text transform="translate(76.25 227.123)" fill="#616161" font-size="6" font-family="SFProDisplay-Light, SF Pro Display" font-weight="300"><tspan x="0" y="0">hello@contact.com</tspan></text><g transform="translate(-31.75 -465.627)"><text transform="translate(70.5 679) rotate(-90)" fill="#979797" font-size="6" font-family="SFProDisplay-Light, SF Pro Display" font-weight="300"><tspan x="0" y="0">Scroll</tspan></text><g transform="translate(73 692.125) rotate(180)" fill="none"><path d="M4.5,0,9,7.875H0Z" stroke="none"/><path d="M 4.5 2.015560150146484 L 1.723176956176758 6.875 L 7.276823043823242 6.875 L 4.5 2.015560150146484 M 4.5 4.76837158203125e-07 L 9 7.875 L 0 7.875 L 4.5 4.76837158203125e-07 Z" stroke="none" fill="#202020"/></g></g></g></g></g><g transform="translate(-643 -1302)"><g transform="matrix(1, 0, 0, 1, 643, 1302)" filter="url(#d)"><g transform="translate(288 126)" fill="#fff" stroke="#88888e" stroke-width="4"><rect width="112" height="224" rx="16" stroke="none"/><rect x="-2" y="-2" width="116" height="228" rx="18" fill="none"/></g></g><g transform="translate(931 1428)" clip-path="url(#f)"><g transform="translate(0 9.35)"><rect width="112" height="199.111" fill="#fff"/><g transform="translate(9.469 47.399)"><text transform="translate(0 14)" fill="#494949" font-size="15" font-family="Gilroy-ExtraBold, Gilroy" font-weight="800"><tspan x="0" y="0">Attractive </tspan><tspan x="0" y="19">Simple and </tspan><tspan x="0" y="38">Creative </tspan><tspan fill="#d07afe"><tspan x="0" y="57">design</tspan></tspan></text><text transform="translate(0 93.066)" fill="#868686" font-size="5" font-family="Gilroy-Light, Gilroy" font-weight="300"><tspan x="0" y="0">We build amazing things for </tspan><tspan x="0" y="9">creative industry.</tspan></text><g transform="translate(0 111.674)"><rect width="39.318" height="15.15" rx="5.256" transform="translate(0 0)" fill="url(#g)"/><text transform="translate(7.906 7.81)" fill="#fff" font-size="3" font-family="Gilroy-Light, Gilroy" font-weight="300"><tspan x="0" y="0">Learn more</tspan></text></g></g><g transform="translate(9.469 1.504)"><g transform="translate(84.676)"><rect width="8.657" height="0.541" transform="translate(0)" fill="#212121"/><rect width="8.657" height="0.541" transform="translate(0 2.164)" fill="#212121"/><rect width="8.657" height="0.541" transform="translate(0 4.329)" fill="#212121"/></g><g transform="translate(0 0.001)"><path d="M10.05,17.066a5.96,5.96,0,0,1,11.567,0h-.523a4.218,4.218,0,0,0-2.468.752,1.244,1.244,0,0,1-.131.083h-.061a1.244,1.244,0,0,1-.131-.083,4.427,4.427,0,0,0-4.941,0,1.244,1.244,0,0,1-.131.083h-.061a1.244,1.244,0,0,1-.131-.083,4.218,4.218,0,0,0-2.468-.752Zm10.1,2.729a1.467,1.467,0,0,1,.94-.309h.7v-1.4h-.7a2.777,2.777,0,0,0-1.667.531,1.584,1.584,0,0,1-1.881,0,2.96,2.96,0,0,0-3.382,0,1.584,1.584,0,0,1-1.881,0,2.777,2.777,0,0,0-1.689-.531H9.871v1.4h.7a1.467,1.467,0,0,1,.94.309,2.952,2.952,0,0,0,3.378,0,1.476,1.476,0,0,1,.94-.309,1.458,1.458,0,0,1,.94.309,2.96,2.96,0,0,0,3.382,0Zm0,2.5a1.467,1.467,0,0,1,.94-.309h.7v-1.4h-.7a2.777,2.777,0,0,0-1.667.531,1.584,1.584,0,0,1-1.881,0,2.96,2.96,0,0,0-3.382,0,1.585,1.585,0,0,1-1.881,0,2.777,2.777,0,0,0-1.689-.531H9.871v1.4h.7a1.467,1.467,0,0,1,.94.309,2.951,2.951,0,0,0,3.378,0,1.476,1.476,0,0,1,.94-.309,1.458,1.458,0,0,1,.94.309,2.96,2.96,0,0,0,3.382,0Z" transform="translate(-9.871 -12.545)" fill="url(#h)"/><text transform="translate(15.009 5.644)" fill="#494949" font-size="3" font-family="Gilroy-ExtraBold, Gilroy" font-weight="800"><tspan x="0" y="0">Megapps</tspan></text></g></g></g></g></g></g></svg>